<?xml version="1.0" standalone="no"?>
<!DOCTYPE svg PUBLIC "-//W3C//DTD SVG 20010904//EN"
 "http://www.w3.org/TR/2001/REC-SVG-20010904/DTD/svg10.dtd">
<svg version="1.0" xmlns="http://www.w3.org/2000/svg"
 width="294.000000pt" height="292.000000pt" viewBox="0 0 294.000000 292.000000"
 preserveAspectRatio="xMidYMid meet">

<g transform="translate(0.000000,292.000000) scale(0.100000,-0.100000)"
fill="#000000" stroke="none">
<path d="M1285 2869 c-617 -84 -1109 -549 -1232 -1165 -24 -124 -24 -395 1
-519 56 -285 180 -526 369 -722 216 -224 458 -360 760 -425 147 -32 427 -32
574 0 276 60 508 183 711 376 211 202 350 455 414 749 31 147 31 408 -1 557
-55 257 -152 454 -323 658 -196 233 -489 408 -793 472 -116 24 -369 34 -480
19z m143 -721 l2 -614 35 -17 c20 -9 38 -17 40 -17 3 0 5 285 5 634 l0 634 63
-5 c63 -5 254 -40 269 -49 4 -3 8 -117 8 -255 l0 -249 23 0 c12 0 32 -3 44 -6
l23 -6 2 242 3 242 110 -55 c61 -31 136 -74 168 -97 l57 -41 0 -1047 0 -1047
-88 -56 c-99 -64 -130 -80 -201 -109 l-51 -20 0 228 0 227 48 18 c129 45 213
167 214 308 1 131 -64 257 -247 478 -159 191 -214 292 -215 387 0 72 15 82 77
50 26 -14 63 -29 82 -32 l34 -7 -5 66 c-3 37 -4 67 -1 67 2 0 18 -7 34 -16 25
-12 37 -13 65 -4 39 13 39 11 18 53 -44 87 -131 134 -229 124 -142 -15 -245
-138 -245 -294 0 -104 44 -220 155 -408 82 -139 115 -214 115 -259 l0 -39 -28
39 c-90 124 -230 224 -393 279 -41 14 -163 44 -271 65 -198 40 -278 64 -329
101 -15 10 -30 19 -33 19 -3 0 -6 -21 -6 -47 0 -57 33 -133 80 -186 36 -42 28
-46 -30 -17 -45 23 -46 23 -24 -51 33 -111 93 -208 189 -305 77 -78 104 -98
185 -137 120 -59 229 -82 352 -75 48 3 88 4 88 2 0 -2 -32 -13 -71 -25 -59
-18 -88 -21 -172 -17 -117 6 -212 37 -311 102 -71 48 -168 144 -201 201 -15
24 -38 48 -55 55 -16 6 -49 32 -75 57 l-46 46 5 -51 c4 -29 8 -75 11 -103 8
-66 50 -182 90 -244 39 -60 108 -126 164 -154 l41 -21 0 -240 c0 -132 -3 -240
-7 -240 -17 0 -215 106 -268 143 l-60 43 -3 1046 -2 1047 57 41 c32 23 108 66
168 97 l110 55 3 -530 2 -530 31 -6 c17 -3 38 -6 45 -6 12 0 14 93 16 552 l3
553 75 17 c71 17 223 37 245 33 7 -1 11 -217 13 -617z m-858 -705 l0 -967 -51
49 c-260 255 -406 661 -370 1029 30 307 146 564 362 800 28 31 53 56 55 56 2
0 4 -435 4 -967z m1989 747 c73 -106 129 -218 169 -335 113 -330 78 -726 -92
-1038 -50 -92 -159 -238 -225 -302 l-41 -39 0 969 1 970 65 -70 c36 -38 91
-108 123 -155z m-634 -151 c14 -43 -45 -66 -61 -24 -8 19 13 45 37 45 10 0 21
-10 24 -21z m-632 -1395 l137 -7 0 -259 0 -259 -52 6 c-81 9 -240 37 -265 46
-23 8 -23 9 -23 250 l0 241 33 -6 c17 -3 94 -9 170 -12z m557 -229 c0 -235 0
-236 -22 -244 -26 -9 -185 -37 -265 -46 l-53 -6 0 260 0 260 158 4 c86 1 163
4 170 5 9 2 12 -51 12 -233z"/>
<path d="M2040 1940 c-8 -5 -25 -10 -36 -10 -17 0 -23 -7 -26 -34 l-4 -34 76
-25 c95 -32 125 -38 144 -31 28 11 17 28 -35 59 -28 17 -62 42 -74 58 -27 31
-25 30 -45 17z"/>
<path d="M1850 1761 c1 -74 2 -77 45 -135 l45 -59 0 124 0 124 -45 11 -45 10
0 -75z"/>
</g>
</svg>
